<?xml version="1.0" standalone="no"?>
<!DOCTYPE svg PUBLIC "-//W3C//DTD SVG 20010904//EN"
 "http://www.w3.org/TR/2001/REC-SVG-20010904/DTD/svg10.dtd">
<svg version="1.0" xmlns="http://www.w3.org/2000/svg"
 width="1000.000000pt" height="1000.000000pt" viewBox="0 0 1000.000000 1000.000000"
 preserveAspectRatio="xMidYMid meet">
<metadata>
Created by potrace 1.14, written by Peter Selinger 2001-2017
</metadata>
<g transform="translate(0.000000,1000.000000) scale(0.100000,-0.100000)"
fill="#000000" stroke="none">
<path d="M7450 9525 c-297 -41 -595 -133 -854 -261 -794 -395 -1275 -1182
-1460 -2384 -37 -242 -92 -763 -112 -1055 -3 -44 -8 -100 -12 -125 -6 -41 -7
-37 -12 40 -3 47 -7 387 -8 755 -2 369 -7 708 -13 755 -67 571 -390 1092 -878
1419 -246 165 -533 274 -830 315 -96 14 -267 16 -1197 16 l-1085 0 4 -1137 3
-1138 27 -122 c89 -402 254 -714 527 -997 285 -295 622 -480 1043 -573 l122
-27 1005 -6 c553 -3 1013 -9 1024 -14 33 -16 13 -70 -64 -175 -53 -71 -221
-245 -638 -660 -1166 -1160 -2465 -2423 -2561 -2488 -25 -17 -89 -75 -141
-129 -196 -202 -340 -342 -340 -329 0 4 -10 -5 -22 -20 -13 -15 -30 -35 -38
-44 -8 -9 -32 -50 -53 -92 -31 -60 -38 -84 -35 -119 2 -36 8 -47 29 -59 24
-13 31 -13 72 3 25 9 74 36 108 59 34 23 69 47 78 52 8 6 34 30 58 55 24 25
43 41 43 37 0 -9 17 4 71 54 21 20 36 38 33 41 -3 4 4 9 15 13 12 3 21 10 21
14 0 14 65 81 78 81 7 0 11 3 10 8 -3 7 44 59 142 161 19 20 36 43 38 50 2 8
40 53 86 100 45 47 220 230 387 406 475 500 738 766 1709 1731 881 876 1050
1034 1103 1034 10 0 16 -4 13 -9 -3 -4 4 -8 17 -7 l22 1 6 -1015 5 -1015 27
-122 c89 -402 254 -714 527 -997 285 -295 621 -479 1043 -573 l122 -27 1138
-3 1138 -4 -4 1138 -3 1138 -27 122 c-94 422 -278 758 -573 1043 -254 245
-552 413 -885 499 -223 57 -267 60 -1041 61 -637 2 -813 8 -671 24 27 3 102
15 168 26 66 12 176 28 245 36 770 89 1142 154 1545 270 807 233 1294 594
1586 1177 132 262 236 583 275 848 25 170 15 489 -20 654 -167 792 -784 1379
-1567 1490 -129 18 -437 18 -569 0z"/>
</g>
</svg>
